<svg width="15" height="15" viewBox="0 0 15 15" fill="none" xmlns="http://www.w3.org/2000/svg">
<path d="M7.18274 1.74312H4.84586C2.92399 1.74312 1.71899 3.10375 1.71899 5.03V10.2262C1.71899 12.1525 2.91836 13.5131 4.84586 13.5131H10.3609C12.289 13.5131 13.4884 12.1525 13.4884 10.2262V7.70875M9.47829 2.87657L12.332 5.73032M5.51742 6.82557L10.188 2.15494C10.7699 1.57369 11.713 1.57369 12.2949 2.15494L13.0555 2.91556C13.6374 3.49744 13.6374 4.44119 13.0555 5.02244L8.36242 9.71557C8.10804 9.96994 7.76304 10.1131 7.40304 10.1131H5.06179L5.12054 7.75057C5.12929 7.40307 5.27117 7.07182 5.51742 6.82557Z" stroke="#FEFEFE" stroke-width="1.2" stroke-linecap="round" stroke-linejoin="round"/>
</svg>
